<?xml version="1.0" encoding="UTF-8"?><svg id="Layer_1" xmlns="http://www.w3.org/2000/svg" viewBox="0 0 455.92 182.18"><defs><style>.cls-1{fill:#fff;}.cls-2{fill:#00bd67;}.cls-2,.cls-3,.cls-4,.cls-5,.cls-6,.cls-7{stroke:#000;stroke-miterlimit:10;}.cls-3{fill:#6b6b6b;}.cls-4{fill:#ee4c2c;}.cls-5{fill:#0099c4;}.cls-6{fill:#f7c200;}.cls-7{fill:none;}</style></defs><g><rect class="cls-2" x="44.89" y="43.11" width="92.66" height="106.47"/><rect class="cls-2" x="48.06" y="46.12" width="92.66" height="106.47"/><rect class="cls-2" x="51.23" y="49.13" width="92.66" height="106.47"/><rect class="cls-6" x="6.12" y="39.63" width="23.59" height="106.47"/><rect class="cls-5" x="71.56" y="-27.03" width="23.59" height="92.39" transform="translate(64.19 102.51) rotate(-90)"/><rect class="cls-6" x="8.99" y="42.44" width="23.59" height="106.47"/><rect class="cls-5" x="74.42" y="-24.22" width="23.59" height="92.39" transform="translate(64.24 108.19) rotate(-90)"/><rect class="cls-6" x="12.21" y="45.79" width="23.59" height="106.47"/><rect class="cls-5" x="77.64" y="-20.87" width="23.59" height="92.39" transform="translate(64.12 114.76) rotate(-90)"/></g><g><path class="cls-1" d="M76.29,124.7c0-4.5,.62-7.77,.62-11.9,0-2.41-1.67-4.75-8.94-4.81v-3.21c7.28-.06,8.94-2.4,8.94-4.81,0-3.88-.62-7.65-.62-11.9,0-6.35,3.7-8.2,11.41-8.2h3.82v2.9h-3.21c-6.29,0-7.65,1.6-7.65,5.61,0,3.51,.37,7.34,.37,11.16s-1.36,5.98-5.61,6.72v.25c4.25,.74,5.61,2.71,5.61,6.72s-.37,7.4-.37,11.16c0,4.01,1.36,5.61,7.65,5.61h3.21v2.9h-3.82c-7.71,0-11.41-1.85-11.41-8.2Z"/><path class="cls-1" d="M103.67,130.01h3.14c6.29,0,7.71-1.6,7.71-5.61,0-3.76-.37-6.97-.37-11.16s1.29-5.98,5.55-6.72v-.25c-4.25-.74-5.55-2.71-5.55-6.72s.37-7.65,.37-11.16c0-4.01-1.42-5.61-7.71-5.61h-3.14v-2.9h3.76c7.77,0,11.34,1.85,11.34,8.2,0,4.25-.55,8.02-.55,11.9,0,2.4,1.67,4.75,8.94,4.81v3.21c-7.28,.06-8.94,2.4-8.94,4.81,0,4.13,.55,7.4,.55,11.9,0,6.35-3.58,8.2-11.34,8.2h-3.76v-2.9Z"/></g><g><line class="cls-7" x1="234.73" y1="97.35" x2="158.37" y2="97.35"/><polygon points="233.27 92.36 241.91 97.35 233.27 102.34 233.27 92.36"/></g><g><path d="M200.55,68.73c-.14-.53-.32-1.03-.53-1.52l-2.12-.12c-.51-.94-1.16-1.77-1.91-2.48l.42-2.08c-.85-.65-1.79-1.19-2.78-1.6l-1.58,1.41c-.99-.29-2.04-.43-3.1-.4l-1.18-1.76c-.53,.07-1.05,.17-1.58,.31-.53,.14-1.03,.32-1.52,.53l-.12,2.12c-.94,.51-1.77,1.16-2.48,1.91l-2.08-.42c-.66,.85-1.19,1.79-1.6,2.78l1.41,1.58c-.3,.99-.43,2.04-.4,3.11l-1.76,1.17c.07,.52,.17,1.05,.31,1.58,.14,.53,.32,1.03,.53,1.52l2.12,.12c.51,.94,1.16,1.77,1.91,2.48l-.42,2.07c.85,.66,1.79,1.19,2.78,1.6l1.58-1.41c.99,.3,2.04,.43,3.11,.4l1.17,1.77c.53-.07,1.05-.17,1.58-.31,.53-.14,1.03-.32,1.52-.52l.12-2.12c.94-.51,1.77-1.16,2.48-1.91l2.07,.42c.66-.85,1.2-1.79,1.6-2.78l-1.41-1.58c.3-.99,.43-2.04,.4-3.11l1.77-1.17c-.07-.52-.17-1.05-.31-1.58Zm-3.58,.97c1.15,4.26-1.37,8.66-5.63,9.81-4.26,1.15-8.66-1.37-9.81-5.63-1.16-4.26,1.37-8.66,5.63-9.81,4.26-1.15,8.66,1.37,9.81,5.63Z"/><path d="M220.22,74.11v-.05c-.74-.99-1.63-1.83-2.67-2.62v.05c-.84,.64-1.68,1.33-2.47,2.03-.35-.2-.64-.35-.94-.49-.4-.2-.79-.4-1.23-.49-.15-.05-.3-.1-.44-.1-.1-1.09-.2-2.17-.35-3.26-.5-.1-.99-.1-1.53-.15h-.79c-.49,.05-.94,.05-1.38,.15-.15,1.04-.25,2.12-.3,3.21-.2,0-.35,.05-.54,.1-.05,0-.1,0-.15,.05-.39,.1-.79,.3-1.18,.49-.35,.15-.64,.3-.94,.49-.84-.69-1.63-1.33-2.47-2.03l-.05-.05c-.2,.15-.4,.3-.54,.44-.35,.25-.64,.54-.89,.84-.44,.4-.79,.89-1.19,1.38h.05c.64,.84,1.33,1.63,2.03,2.47-.2,.3-.39,.64-.54,.94-.2,.39-.35,.84-.44,1.23-.1,.2-.15,.4-.15,.54-1.09,.1-2.17,.2-3.21,.35-.1,.49-.15,.99-.15,1.53,0,.74,.05,1.48,.2,2.17,1.04,.1,2.07,.2,3.16,.3,0,.2,.05,.4,.15,.54,.1,.44,.25,.84,.44,1.28,.2,.35,.35,.69,.59,.99-.69,.84-1.38,1.63-2.03,2.47,.74,1.04,1.63,1.93,2.67,2.67v-.05c.79-.64,1.63-1.33,2.42-2.03h.05c.25,.15,.54,.3,.79,.45,.44,.2,.94,.39,1.38,.49,.2,.05,.35,.1,.49,.15,.1,1.04,.2,2.12,.35,3.21,.45,.05,.89,.1,1.38,.1h.74c.54,0,1.09-.05,1.63-.15,.1-1.04,.2-2.12,.3-3.21,.15-.05,.3-.1,.44-.15h0c.45-.1,.84-.25,1.23-.44,.34-.15,.69-.35,1.04-.59t.05,.05c.79,.69,1.63,1.38,2.47,2.03,.15-.1,.3-.2,.49-.34,.3-.25,.59-.54,.84-.84,.44-.44,.89-.94,1.29-1.48-.69-.84-1.38-1.68-2.08-2.47v-.05c.15-.25,.3-.54,.44-.84,.15-.4,.35-.79,.44-1.19,0-.05,0-.1,.05-.1,0-.2,.05-.35,.1-.44,1.09-.1,2.17-.2,3.21-.3,.1-.49,.1-.99,.15-1.48v-.84c-.05-.49-.05-.99-.15-1.48-1.04-.1-2.12-.2-3.21-.3-.05-.15-.1-.3-.1-.45-.15-.44-.3-.89-.49-1.33-.15-.3-.35-.64-.5-.94,.64-.79,1.34-1.63,2.03-2.47Zm-13.19,4.1c.89-.94,1.97-1.38,3.21-1.34,1.28-.05,2.32,.4,3.26,1.34,.89,.89,1.34,1.98,1.34,3.21s-.45,2.32-1.34,3.26c-.94,.89-1.97,1.33-3.26,1.33s-2.32-.44-3.21-1.33c-.89-.94-1.34-1.98-1.34-3.26,0-1.23,.45-2.32,1.34-3.21Z"/><path d="M210.29,77.52c-1.09,0-1.98,.39-2.77,1.13-.74,.79-1.14,1.68-1.14,2.77s.4,1.98,1.14,2.77h0c.79,.79,1.68,1.19,2.77,1.19s1.98-.4,2.77-1.19h0c.79-.79,1.14-1.68,1.14-2.77h0c0-1.09-.35-1.98-1.14-2.77-.79-.74-1.68-1.13-2.77-1.13Zm-2.07,1.83c.59-.54,1.29-.84,2.07-.84s1.48,.3,2.08,.84c.59,.59,.84,1.24,.84,2.07h0c0,.84-.25,1.53-.84,2.08-.59,.59-1.29,.89-2.08,.89s-1.48-.3-2.07-.89c-.54-.54-.84-1.24-.84-2.08,0-.79,.3-1.48,.84-2.07Z"/></g><rect class="cls-3" x="256.39" y="87.17" width="193.41" height="20.37"/><rect class="cls-3" x="256.39" y="114.16" width="193.41" height="20.37"/><rect class="cls-3" x="256.39" y="60.18" width="193.41" height="20.37"/><rect class="cls-4" x="256.39" y="87.17" width="133.68" height="20.37"/><rect class="cls-4" x="256.39" y="114.16" width="133.68" height="20.37"/><rect class="cls-4" x="256.39" y="60.18" width="133.68" height="20.37"/><g><path d="M269.17,46.87v-2.76h-1.66v-.74l1.69-.06,.13-1.87h.83v1.87h2.85v.8h-2.85v2.77c0,1.04,.35,1.58,1.48,1.58,.54,0,.97-.11,1.39-.26l.22,.73c-.53,.19-1.09,.35-1.82,.35-1.7,0-2.25-.97-2.25-2.41Z"/><path d="M274.61,46.23c0-1.96,1.34-3.07,2.88-3.07s2.88,1.12,2.88,3.07-1.34,3.05-2.88,3.05-2.88-1.12-2.88-3.05Zm4.74,0c0-1.34-.74-2.24-1.86-2.24s-1.86,.9-1.86,2.24,.74,2.22,1.86,2.22,1.86-.89,1.86-2.22Z"/><path d="M282.83,43.3h.83l.1,1.38h.02c.61-.95,1.52-1.52,2.6-1.52,.43,0,.79,.06,1.15,.24l-.23,.85c-.41-.13-.62-.19-1.08-.19-.88,0-1.7,.44-2.4,1.67v3.41h-1v-5.83Z"/><path d="M289.25,46.23c0-1.96,1.49-3.07,3.25-3.07,.95,0,1.64,.38,2.12,.85l-.49,.64c-.48-.41-.98-.66-1.59-.66-1.34,0-2.27,.9-2.27,2.24s.91,2.22,2.24,2.22c.72,0,1.32-.32,1.8-.73l.44,.65c-.65,.58-1.45,.91-2.32,.91-1.82,0-3.19-1.12-3.19-3.05Z"/><path d="M296.61,40.59h1v2.33l-.06,1.38h.04c.59-.65,1.27-1.14,2.17-1.14,1.38,0,2.01,.82,2.01,2.35v3.62h-1v-3.49c0-1.1-.38-1.62-1.33-1.62-.7,0-1.16,.35-1.84,1.04v4.07h-1v-8.54Z"/><path d="M305.32,48.26c0-.6,.43-1.02,.97-1.02s.97,.42,.97,1.02-.43,1.02-.97,1.02-.97-.41-.97-1.02Z"/><path d="M310.82,46.93v-3.62h1v3.49c0,1.09,.38,1.62,1.34,1.62,.67,0,1.16-.31,1.81-1.07v-4.04h1v5.83h-.83l-.08-1.02h-.05c-.59,.68-1.27,1.16-2.17,1.16-1.38,0-2.01-.82-2.01-2.35Z"/><path d="M319.56,46.87v-2.76h-1.66v-.74l1.69-.06,.13-1.87h.83v1.87h2.85v.8h-2.85v2.77c0,1.04,.35,1.58,1.48,1.58,.54,0,.97-.11,1.39-.26l.22,.73c-.53,.19-1.09,.35-1.82,.35-1.7,0-2.25-.97-2.25-2.41Z"/><path d="M328.07,44.11h-2.7v-.8h3.69v5.83h-1v-5.03Zm-.4-2.79c0-.46,.34-.77,.79-.77s.79,.31,.79,.77-.33,.77-.79,.77-.79-.3-.79-.77Z"/><path d="M334.44,47.18v-5.78h-2.06v-.8h3.06v6.66c0,.84,.46,1.2,1.15,1.2,.33,0,.7-.08,1.09-.26l.25,.74c-.54,.23-.92,.35-1.56,.35-1.25,0-1.93-.72-1.93-2.1Z"/><path d="M339.55,48.36l.46-.66c.67,.48,1.46,.79,2.53,.79,.98,0,1.46-.41,1.46-.9,0-.44-.23-.76-1.81-1.08-1.52-.31-2.28-.83-2.28-1.7,0-.94,.83-1.66,2.42-1.66,.89,0,1.78,.35,2.35,.74l-.48,.64c-.54-.37-1.21-.61-1.96-.61-.98,0-1.34,.4-1.34,.84,0,.5,.5,.72,1.7,.97,1.93,.42,2.4,.9,2.4,1.8,0,.95-.92,1.74-2.59,1.74-1.14,0-2.16-.42-2.87-.91Z"/><path d="M348.52,48.26c0-.6,.43-1.02,.97-1.02s.97,.42,.97,1.02-.43,1.02-.97,1.02-.97-.41-.97-1.02Z"/><path d="M353.81,46.23c0-1.89,1.26-3.07,2.64-3.07,.7,0,1.24,.28,1.75,.74h.02l-.05-1.07v-2.24h1v8.54h-.82l-.08-.77h-.04c-.48,.49-1.18,.91-1.91,.91-1.51,0-2.52-1.1-2.52-3.05Zm4.37,1.34v-2.9c-.53-.49-1.02-.67-1.52-.67-1.01,0-1.82,.89-1.82,2.22s.65,2.22,1.71,2.22c.58,0,1.12-.29,1.63-.86Z"/><path d="M361.25,47.62c0-1.31,1.22-1.94,4.23-2.18-.04-.79-.42-1.46-1.55-1.46-.75,0-1.5,.36-2.04,.7l-.4-.67c.6-.38,1.58-.84,2.6-.84,1.6,0,2.38,.95,2.38,2.4v3.57h-.83l-.08-.79h-.04c-.64,.5-1.48,.94-2.29,.94-1.09,0-1.99-.61-1.99-1.65Zm4.23-.01v-1.51c-2.5,.19-3.25,.68-3.25,1.45,0,.66,.6,.92,1.27,.92s1.31-.31,1.98-.86Z"/><path d="M369.96,46.87v-2.76h-1.66v-.74l1.69-.06,.13-1.87h.83v1.87h2.85v.8h-2.85v2.77c0,1.04,.35,1.58,1.48,1.58,.54,0,.97-.11,1.39-.26l.22,.73c-.53,.19-1.09,.35-1.82,.35-1.7,0-2.25-.97-2.25-2.41Z"/><path d="M375.65,47.62c0-1.31,1.22-1.94,4.23-2.18-.04-.79-.42-1.46-1.55-1.46-.76,0-1.5,.36-2.04,.7l-.4-.67c.6-.38,1.58-.84,2.6-.84,1.6,0,2.38,.95,2.38,2.4v3.57h-.83l-.08-.79h-.04c-.64,.5-1.48,.94-2.29,.94-1.09,0-1.99-.61-1.99-1.65Zm4.23-.01v-1.51c-2.5,.19-3.25,.68-3.25,1.45,0,.66,.6,.92,1.27,.92s1.31-.31,1.98-.86Z"/><path d="M384.52,48.26c0-.6,.43-1.02,.97-1.02s.97,.42,.97,1.02-.43,1.02-.97,1.02-.97-.41-.97-1.02Z"/><path d="M390.14,41.26h1.94c2.36,0,3.65,1.4,3.65,3.9s-1.28,3.97-3.6,3.97h-1.99v-7.87Zm1.87,7.04c1.79,0,2.67-1.15,2.67-3.14s-.89-3.07-2.67-3.07h-.86v6.21h.86Z"/><path d="M397.25,47.62c0-1.31,1.22-1.94,4.23-2.18-.04-.79-.42-1.46-1.55-1.46-.76,0-1.5,.36-2.04,.7l-.4-.67c.6-.38,1.58-.84,2.6-.84,1.6,0,2.38,.95,2.38,2.4v3.57h-.83l-.08-.79h-.04c-.64,.5-1.48,.94-2.29,.94-1.09,0-1.99-.61-1.99-1.65Zm4.23-.01v-1.51c-2.5,.19-3.25,.68-3.25,1.45,0,.66,.6,.92,1.27,.92s1.31-.31,1.98-.86Z"/><path d="M405.96,46.87v-2.76h-1.66v-.74l1.69-.06,.13-1.87h.83v1.87h2.85v.8h-2.85v2.77c0,1.04,.35,1.58,1.48,1.58,.54,0,.97-.11,1.39-.26l.22,.73c-.53,.19-1.09,.35-1.82,.35-1.7,0-2.25-.97-2.25-2.41Z"/><path d="M411.65,47.62c0-1.31,1.22-1.94,4.23-2.18-.04-.79-.42-1.46-1.55-1.46-.76,0-1.5,.36-2.04,.7l-.4-.67c.6-.38,1.58-.84,2.6-.84,1.6,0,2.38,.95,2.38,2.4v3.57h-.83l-.08-.79h-.04c-.64,.5-1.48,.94-2.29,.94-1.09,0-1.99-.61-1.99-1.65Zm4.23-.01v-1.51c-2.5,.19-3.25,.68-3.25,1.45,0,.66,.6,.92,1.27,.92s1.31-.31,1.98-.86Z"/><path d="M418.74,48.36l.46-.66c.67,.48,1.46,.79,2.53,.79,.98,0,1.46-.41,1.46-.9,0-.44-.23-.76-1.81-1.08-1.52-.31-2.28-.83-2.28-1.7,0-.94,.83-1.66,2.42-1.66,.89,0,1.78,.35,2.35,.74l-.48,.64c-.54-.37-1.21-.61-1.96-.61-.98,0-1.34,.4-1.34,.84,0,.5,.5,.72,1.7,.97,1.93,.42,2.4,.9,2.4,1.8,0,.95-.92,1.74-2.59,1.74-1.14,0-2.16-.42-2.87-.91Z"/><path d="M425.91,46.21c0-1.89,1.42-3.05,2.97-3.05,1.68,0,2.66,1.09,2.66,2.73,0,.23-.02,.44-.05,.6h-4.93v-.77h4.34l-.25,.28c0-1.38-.68-2.06-1.75-2.06s-2.01,.82-2.01,2.27,.98,2.28,2.28,2.28c.7,0,1.25-.22,1.77-.55l.36,.65c-.58,.38-1.32,.7-2.25,.7-1.75,0-3.14-1.13-3.14-3.07Z"/><path d="M434.76,46.87v-2.76h-1.66v-.74l1.69-.06,.13-1.87h.83v1.87h2.85v.8h-2.85v2.77c0,1.04,.35,1.58,1.48,1.58,.54,0,.97-.11,1.39-.26l.22,.73c-.53,.19-1.09,.35-1.82,.35-1.7,0-2.25-.97-2.25-2.41Z"/></g><g><path d="M44.52,167.86c0-1.31,1.22-1.94,4.23-2.18-.04-.79-.42-1.46-1.55-1.46-.75,0-1.5,.36-2.04,.7l-.4-.67c.6-.38,1.58-.84,2.6-.84,1.6,0,2.38,.95,2.38,2.4v3.57h-.83l-.08-.79h-.04c-.64,.5-1.48,.94-2.29,.94-1.09,0-1.99-.61-1.99-1.65Zm4.23-.01v-1.51c-2.5,.19-3.25,.68-3.25,1.45,0,.66,.6,.92,1.27,.92s1.31-.31,1.98-.86Z"/><path d="M51.88,163.54h.82l.08,.98h.05c.61-.64,1.28-1.13,2.2-1.13,1.38,0,2.01,.82,2.01,2.35v3.62h-1v-3.49c0-1.1-.38-1.62-1.33-1.62-.7,0-1.16,.35-1.83,1.04v4.07h-1v-5.83Z"/><path d="M59.08,163.54h.82l.08,.98h.05c.61-.64,1.28-1.13,2.2-1.13,1.38,0,2.01,.82,2.01,2.35v3.62h-1v-3.49c0-1.1-.38-1.62-1.33-1.62-.7,0-1.16,.35-1.83,1.04v4.07h-1v-5.83Z"/><path d="M65.88,166.47c0-1.89,1.26-3.07,2.64-3.07,.7,0,1.24,.28,1.75,.74h.02l-.05-1.07v-2.24h1v8.54h-.82l-.08-.77h-.04c-.48,.49-1.18,.91-1.91,.91-1.51,0-2.52-1.1-2.52-3.05Zm4.37,1.34v-2.9c-.53-.49-1.02-.67-1.52-.67-1.01,0-1.82,.89-1.82,2.22s.65,2.22,1.71,2.22c.58,0,1.12-.29,1.63-.86Z"/><path d="M73.32,167.86c0-1.31,1.22-1.94,4.23-2.18-.04-.79-.42-1.46-1.55-1.46-.76,0-1.5,.36-2.04,.7l-.4-.67c.6-.38,1.58-.84,2.6-.84,1.6,0,2.38,.95,2.38,2.4v3.57h-.83l-.08-.79h-.04c-.64,.5-1.48,.94-2.29,.94-1.09,0-1.99-.61-1.99-1.65Zm4.23-.01v-1.51c-2.5,.19-3.25,.68-3.25,1.45,0,.66,.6,.92,1.27,.92s1.31-.31,1.98-.86Z"/><path d="M82.03,167.1v-2.76h-1.66v-.74l1.69-.06,.13-1.87h.83v1.87h2.85v.8h-2.85v2.77c0,1.04,.35,1.58,1.48,1.58,.54,0,.97-.11,1.39-.26l.22,.73c-.53,.19-1.09,.35-1.82,.35-1.7,0-2.25-.97-2.25-2.41Z"/><path d="M87.72,167.86c0-1.31,1.22-1.94,4.23-2.18-.04-.79-.42-1.46-1.55-1.46-.75,0-1.5,.36-2.04,.7l-.4-.67c.6-.38,1.58-.84,2.6-.84,1.6,0,2.38,.95,2.38,2.4v3.57h-.83l-.08-.79h-.04c-.64,.5-1.48,.94-2.29,.94-1.09,0-1.99-.61-1.99-1.65Zm4.23-.01v-1.51c-2.5,.19-3.25,.68-3.25,1.45,0,.66,.6,.92,1.27,.92s1.31-.31,1.98-.86Z"/><path d="M96.59,168.49c0-.6,.43-1.02,.97-1.02s.97,.42,.97,1.02-.43,1.02-.97,1.02-.97-.41-.97-1.02Z"/><path d="M104.19,161.5h1.15l2.65,7.87h-1.08l-1.36-4.39c-.28-.88-.54-1.74-.78-2.65h-.05c-.25,.91-.5,1.78-.78,2.65l-1.38,4.39h-1.03l2.65-7.87Zm-1.25,4.67h3.61v.82h-3.61v-.82Z"/><path d="M109.48,163.54h.82l.08,.98h.05c.61-.64,1.28-1.13,2.2-1.13,1.38,0,2.01,.82,2.01,2.35v3.62h-1v-3.49c0-1.1-.38-1.62-1.33-1.62-.7,0-1.16,.35-1.84,1.04v4.07h-1v-5.83Z"/><path d="M116.68,163.54h.82l.08,.98h.05c.61-.64,1.28-1.13,2.2-1.13,1.38,0,2.01,.82,2.01,2.35v3.62h-1v-3.49c0-1.1-.38-1.62-1.33-1.62-.7,0-1.16,.35-1.83,1.04v4.07h-1v-5.83Z"/><path d="M123.81,161.5h1.94c2.36,0,3.65,1.4,3.65,3.9s-1.28,3.97-3.6,3.97h-1.99v-7.87Zm1.87,7.04c1.79,0,2.67-1.15,2.67-3.14s-.89-3.07-2.67-3.07h-.86v6.21h.86Z"/><path d="M130.92,167.86c0-1.31,1.22-1.94,4.23-2.18-.04-.79-.42-1.46-1.55-1.46-.75,0-1.5,.36-2.04,.7l-.4-.67c.6-.38,1.58-.84,2.6-.84,1.6,0,2.38,.95,2.38,2.4v3.57h-.83l-.08-.79h-.04c-.64,.5-1.48,.94-2.29,.94-1.09,0-1.99-.61-1.99-1.65Zm4.23-.01v-1.51c-2.5,.19-3.25,.68-3.25,1.45,0,.66,.6,.92,1.27,.92s1.31-.31,1.98-.86Z"/><path d="M139.63,167.1v-2.76h-1.66v-.74l1.69-.06,.13-1.87h.83v1.87h2.85v.8h-2.85v2.77c0,1.04,.35,1.58,1.48,1.58,.54,0,.97-.11,1.39-.26l.22,.73c-.53,.19-1.09,.35-1.82,.35-1.7,0-2.25-.97-2.25-2.41Z"/><path d="M145.32,167.86c0-1.31,1.22-1.94,4.23-2.18-.04-.79-.42-1.46-1.55-1.46-.75,0-1.5,.36-2.04,.7l-.4-.67c.6-.38,1.58-.84,2.6-.84,1.6,0,2.38,.95,2.38,2.4v3.57h-.83l-.08-.79h-.04c-.64,.5-1.48,.94-2.29,.94-1.09,0-1.99-.61-1.99-1.65Zm4.23-.01v-1.51c-2.5,.19-3.25,.68-3.25,1.45,0,.66,.6,.92,1.27,.92s1.31-.31,1.98-.86Z"/></g></svg>