<?xml version="1.0" encoding="UTF-8"?><svg id="Layer_1" xmlns="http://www.w3.org/2000/svg" xmlns:xlink="http://www.w3.org/1999/xlink" viewBox="0 0 166.22 182.18"><defs><style>.cls-1{fill:url(#linear-gradient);}.cls-2{fill:#ee4c2c;}.cls-3{fill:#fff;opacity:.88;}</style><linearGradient id="linear-gradient" x1="-2904.79" y1="385.06" x2="-2904.43" y2="385.06" gradientTransform="translate(-591939.35 -510335.01) rotate(-146.78) scale(266.79 -266.79)" gradientUnits="userSpaceOnUse"><stop offset="0" stop-color="#ed1480"/><stop offset=".82" stop-color="#f6851f"/><stop offset="1" stop-color="#f8a330"/></linearGradient></defs><g><path d="M133.94,53.07l-13.48,13.48c22.13,22.13,22.13,57.73,0,79.52-22.13,22.13-57.73,22.13-79.52,0-22.13-22.13-22.13-57.73,0-79.52h0L76.04,31.44l4.99-4.99h0V0L28.13,52.9c-29.45,29.45-29.45,77.03,0,106.47,29.45,29.45,77.03,29.45,105.98,0,29.28-29.45,29.28-76.69-.17-106.31Z"/><circle cx="107.49" cy="40.09" r="9.82" transform="translate(65.41 146.82) rotate(-88.94)"/></g><path id="shrimp" class="cls-1" d="M61.06,83.1H15.44c-.7,1.67-2.35,2.84-4.28,2.84-2.56,0-4.64-2.08-4.64-4.64s2.08-4.64,4.64-4.64c1.93,0,3.59,1.19,4.29,2.87H59.5c.02,.08,.02,.17,.04,.25,.27,1.21,.81,2.31,1.52,3.32Zm-1.31-10.03h-25.29c-.7,1.67-2.35,2.84-4.28,2.84-2.56,0-4.64-2.08-4.64-4.64s2.08-4.64,4.64-4.64c1.93,0,3.59,1.19,4.29,2.87h26.6c-.57,1.19-1.02,2.38-1.32,3.57Zm70.48,19.95c2.38,3.53,1.74,11.03-4.18,14.12-5.32,2.79-11.48,1.56-13.86-1.98-2.38-3.53,2.72-3.89,7.7-7.24,4.98-3.35,7.96-8.44,10.34-4.9h0Zm-9.33-19.65c4.88,5.25,3.91,14.08-2.16,19.72-6.07,5.64-14.95,5.95-19.83,.7-4.88-5.25,3.27-6.35,9.34-12,6.07-5.64,7.77-13.68,12.65-8.43Zm-42.96-4.56c2.18-.34,4.23,1.15,4.58,3.33,.34,2.18-1.15,4.23-3.33,4.58-2.18,.34-4.23-1.15-4.58-3.33-.34-2.18,1.15-4.23,3.33-4.57Zm-13.14,9.8c.96,4.32,11.8,8.46,24.39,6.47,12.59-1.99,21.87-9.52,20.72-16.82-1.15-7.3-12.29-11.61-24.89-9.63-12.59,1.99-21.82,12.76-20.22,19.98Zm61.27,34.26c-4.2-1.71-9.31,5.6-10.96,9.66-1.66,4.06-3.47,7.65,.73,9.36,4.2,1.71,8.02-.7,10.6-4.24,3.11-4.27,3.83-13.06-.37-14.78"/><rect class="cls-3" y="136.58" width="162.09" height="19.4"/><g><path class="cls-2" d="M8.31,149.79v-5.52h-3.31v-1.49l3.38-.12,.26-3.74h1.66v3.74h5.71v1.61h-5.71v5.54c0,2.09,.7,3.17,2.95,3.17,1.08,0,1.94-.22,2.78-.53l.43,1.46c-1.06,.38-2.18,.7-3.65,.7-3.41,0-4.51-1.94-4.51-4.82Z"/><path class="cls-2" d="M19.2,148.52c0-3.91,2.69-6.14,5.76-6.14s5.76,2.23,5.76,6.14-2.69,6.1-5.76,6.1-5.76-2.23-5.76-6.1Zm9.48,0c0-2.69-1.49-4.49-3.72-4.49s-3.72,1.8-3.72,4.49,1.49,4.44,3.72,4.44,3.72-1.78,3.72-4.44Z"/><path class="cls-2" d="M35.64,142.66h1.66l.19,2.76h.05c1.22-1.9,3.05-3.05,5.21-3.05,.86,0,1.58,.12,2.3,.48l-.46,1.7c-.82-.26-1.25-.38-2.16-.38-1.75,0-3.41,.89-4.8,3.34v6.82h-1.99v-11.67Z"/><path class="cls-2" d="M48.48,148.52c0-3.91,2.98-6.14,6.5-6.14,1.9,0,3.29,.77,4.25,1.7l-.98,1.27c-.96-.82-1.97-1.32-3.19-1.32-2.69,0-4.54,1.8-4.54,4.49s1.82,4.44,4.49,4.44c1.44,0,2.64-.65,3.6-1.46l.89,1.3c-1.3,1.15-2.9,1.82-4.63,1.82-3.65,0-6.38-2.23-6.38-6.1Z"/><path class="cls-2" d="M63.19,137.24h1.99v4.66l-.12,2.76h.07c1.18-1.3,2.54-2.28,4.34-2.28,2.76,0,4.03,1.63,4.03,4.7v7.25h-1.99v-6.98c0-2.21-.77-3.24-2.66-3.24-1.39,0-2.33,.7-3.67,2.09v8.14h-1.99v-17.09Z"/><path class="cls-2" d="M77.4,145.66h10.32v1.49h-10.32v-1.49Z"/><path class="cls-2" d="M91.68,151.3c0-2.62,2.45-3.89,8.47-4.37-.07-1.58-.84-2.93-3.1-2.93-1.51,0-3,.72-4.08,1.39l-.79-1.34c1.2-.77,3.17-1.68,5.21-1.68,3.19,0,4.75,1.9,4.75,4.8v7.15h-1.66l-.17-1.58h-.07c-1.27,1.01-2.95,1.87-4.58,1.87-2.18,0-3.98-1.22-3.98-3.31Zm8.47-.02v-3.02c-4.99,.38-6.5,1.37-6.5,2.9,0,1.32,1.2,1.85,2.54,1.85s2.62-.62,3.96-1.73Z"/><path class="cls-2" d="M105.6,148.52c0-3.79,2.52-6.14,5.28-6.14,1.39,0,2.47,.55,3.5,1.49h.05l-.1-2.14v-4.49h1.99v17.09h-1.63l-.17-1.54h-.07c-.96,.98-2.35,1.82-3.82,1.82-3.02,0-5.04-2.21-5.04-6.1Zm8.74,2.69v-5.81c-1.06-.98-2.04-1.34-3.05-1.34-2.02,0-3.65,1.78-3.65,4.44s1.3,4.44,3.43,4.44c1.15,0,2.23-.58,3.26-1.73Z"/><path class="cls-2" d="M120.48,151.3c0-2.62,2.45-3.89,8.47-4.37-.07-1.58-.84-2.93-3.1-2.93-1.51,0-3,.72-4.08,1.39l-.79-1.34c1.2-.77,3.17-1.68,5.21-1.68,3.19,0,4.75,1.9,4.75,4.8v7.15h-1.66l-.17-1.58h-.07c-1.27,1.01-2.95,1.87-4.58,1.87-2.18,0-3.98-1.22-3.98-3.31Zm8.47-.02v-3.02c-4.99,.38-6.5,1.37-6.5,2.9,0,1.32,1.2,1.85,2.54,1.85s2.62-.62,3.96-1.73Z"/><path class="cls-2" d="M137.9,149.79v-5.52h-3.31v-1.49l3.38-.12,.26-3.74h1.66v3.74h5.71v1.61h-5.71v5.54c0,2.09,.7,3.17,2.95,3.17,1.08,0,1.94-.22,2.78-.53l.43,1.46c-1.06,.38-2.18,.7-3.65,.7-3.41,0-4.51-1.94-4.51-4.82Z"/><path class="cls-2" d="M149.28,151.3c0-2.62,2.45-3.89,8.47-4.37-.07-1.58-.84-2.93-3.1-2.93-1.51,0-3,.72-4.08,1.39l-.79-1.34c1.2-.77,3.17-1.68,5.21-1.68,3.19,0,4.75,1.9,4.75,4.8v7.15h-1.66l-.17-1.58h-.07c-1.27,1.01-2.95,1.87-4.58,1.87-2.18,0-3.98-1.22-3.98-3.31Zm8.47-.02v-3.02c-4.99,.38-6.5,1.37-6.5,2.9,0,1.32,1.2,1.85,2.54,1.85s2.62-.62,3.96-1.73Z"/></g></svg>