<?xml version="1.0" encoding="UTF-8"?><svg id="Layer_1" xmlns="http://www.w3.org/2000/svg" xmlns:xlink="http://www.w3.org/1999/xlink" viewBox="0 0 1332.59 151.84"><defs><style>.cls-1{fill:url(#linear-gradient);}.cls-2,.cls-3,.cls-4,.cls-5,.cls-6{fill:#fff;}.cls-7{fill:#f1f1f1;opacity:.2;}.cls-7,.cls-3,.cls-4,.cls-5,.cls-6{isolation:isolate;}.cls-3{opacity:.79;}.cls-4{opacity:.49;}.cls-5{opacity:.48;}.cls-6{opacity:.67;}.cls-8{fill:url(#radial-gradient-6);}.cls-9{fill:url(#radial-gradient-5);}.cls-10{fill:url(#radial-gradient-3);}.cls-11{fill:url(#radial-gradient-4);}.cls-12{fill:url(#radial-gradient-7);}.cls-13{fill:url(#radial-gradient-2);}.cls-14{fill:url(#radial-gradient);}</style><radialGradient id="radial-gradient" cx="66.69" cy="126.25" fx="66.69" fy="126.25" r="24.53" gradientTransform="translate(-16.89 -35.83) scale(1.16 1)" gradientUnits="userSpaceOnUse"><stop offset="0" stop-color="#000"/><stop offset="1" stop-color="#fff" stop-opacity="0"/></radialGradient><radialGradient id="radial-gradient-2" cx="73.14" cy="124.8" fx="73.14" fy="124.8" gradientTransform="translate(-16.89 -36.09) scale(1.16 1)" xlink:href="#radial-gradient"/><radialGradient id="radial-gradient-3" cx="77.96" cy="129.97" fx="77.96" fy="129.97" r="24.53" gradientTransform="translate(-16.89 -35.16) scale(1.16 1)" xlink:href="#radial-gradient"/><radialGradient id="radial-gradient-4" cx="77.96" cy="129.97" fx="77.96" fy="129.97" r="24.53" gradientTransform="translate(-16.89 -35.16) scale(1.16 1)" xlink:href="#radial-gradient"/><radialGradient id="radial-gradient-5" cx="67.67" cy="127.01" fx="67.67" fy="127.01" gradientTransform="translate(-16.89 -35.69) scale(1.16 1)" xlink:href="#radial-gradient"/><radialGradient id="radial-gradient-6" cx="67.67" cy="127.01" fx="67.67" fy="127.01" gradientTransform="translate(-16.89 -35.69) scale(1.16 1)" xlink:href="#radial-gradient"/><linearGradient id="linear-gradient" x1="571.79" y1="3011.41" x2="615.83" y2="3042.25" gradientTransform="translate(1835.63 -2442.65) rotate(46.04)" gradientUnits="userSpaceOnUse"><stop offset="0" stop-color="#997bb2"/><stop offset=".17" stop-color="#652d90"/><stop offset="1" stop-color="#9a72b1"/></linearGradient><radialGradient id="radial-gradient-7" cx="4893.98" cy="7982.38" fx="4908.19" fy="7994.06" r="37.52" gradientTransform="translate(702.48 -3063.05) rotate(46.04) scale(.37 .33)" gradientUnits="userSpaceOnUse"><stop offset="0" stop-color="#ddbfdb"/><stop offset=".31" stop-color="#b485bb"/><stop offset=".47" stop-color="#a073b1"/><stop offset="1" stop-color="#521955"/></radialGradient></defs><g><path d="M109.32,45.79l-10.78,10.78c17.7,17.7,17.7,46.18,0,63.62-17.7,17.7-46.18,17.7-63.62,0-17.7-17.7-17.7-46.18,0-63.62h0l28.08-28.08,3.99-3.99h0V3.33L24.67,45.66c-23.56,23.56-23.56,61.62,0,85.18,23.56,23.56,61.62,23.56,84.78,0,23.42-23.56,23.42-61.36-.13-85.05Z"/><circle cx="88.16" cy="35.41" r="7.85" transform="translate(51.12 122.9) rotate(-88.94)"/></g><g><g><rect class="cls-14" x="32" y="61.24" width="56.92" height="57.78" rx="28.46" ry="28.46"/><rect class="cls-13" x="39.49" y="59.52" width="56.92" height="57.78" rx="28.46" ry="28.46"/></g><g><rect class="cls-10" x="45.08" y="65.61" width="56.92" height="57.78" rx="28.46" ry="28.46"/><rect class="cls-11" x="45.08" y="65.61" width="56.92" height="57.78" rx="28.46" ry="28.46"/></g><g><rect class="cls-9" x="33.14" y="62.13" width="56.92" height="57.78" rx="28.46" ry="28.46"/><rect class="cls-8" x="33.14" y="62.13" width="56.92" height="57.78" rx="28.46" ry="28.46"/></g><path class="cls-2" d="M88.75,106.66c-2.88,2.64-5.98,3.42-8.96,4.17-7.58,1.91-13.83,.44-15.09,.12-1.98-.49-8.51-2.33-14.35-8.22-2.73-2.75-8.43-8.5-8.46-16.81-.03-7.03,4.01-12.57,5.4-14.48,1.62-2.22,3.71-4.32,4.78-5.4,2.49-2.5,3.74-3.75,5.38-4.53,1.28-.61,3.64-1.45,6.74-2.07h0c3.24-.65,6.52-.22,9.59,.47,3.23,.73,5.44,1.23,8.05,2.57,8.15,4.2,11.45,12.09,12.31,14.23,1.82,4.53,1.99,8.32,2.03,9.4,.15,5.27-1.34,9.18-2.45,12.02-1.42,3.62-2.42,6.17-4.97,8.51Z"/><path class="cls-1" d="M90.66,103.91c-2.21,2.96-4.28,4.29-4.89,4.72-2.48,1.75-4.6,2.03-6.97,2.56-1.33,.3-4.55,.92-8.24,.75-9.29-.44-16.19-5.69-17.21-6.48-2.11-1.65-12.11-9.45-11.62-20.92,.28-6.46,3.76-11.12,5.96-14.06,1.97-2.64,5.5-7.36,11.99-9.8,9.4-3.53,17.99,.38,20.23,1.4,7.91,3.6,11.74,9.7,12.53,11,1.26,2.08,3.1,5.76,3.72,10.66,1.21,9.61-3.13,17.02-5.5,20.18Z"/><path class="cls-7" d="M78.69,108.62c.76,.81,1.21,1.64,1.47,2.21-.69,.17-1.71,.41-2.94,.61-2.13,.36-5.53,.9-9.45,.37-2.99-.41-5.12-1.29-6.99-2.09-1.81-.77-7.23-3.24-12.14-8.59-2.1-2.29-3.26-4.17-3.56-4.66-.93-1.54-2.14-3.58-2.82-6.5-.2-.83-1.11-4.98,.25-9.81,.13-.47,.61-2.1,1.59-4.05,.72-1.42,1.42-2.43,2.45-3.93,.96-1.38,1.81-2.51,2.45-3.31,.49,1.6,1.03,4.07,.78,7.03-.44,5.04-2.74,6.1-3.22,9.74-.85,6.46,5.17,13.16,10.27,16.17,4,2.36,8.6,3.15,10.01,3.4,4.92,.84,9.03,.41,11.85,3.42Z"/><path class="cls-12" d="M57.15,76.38c1.99-2.82,4.85-3.96,6.68-4.68,.82-.33,2.27-.89,4.25-1.06,2.72-.24,4.8,.38,6.24,.83,1.49,.46,3.61,1.12,5.66,2.78,.81,.66,4.58,3.71,4.93,8.78,.46,6.65-5.38,10.78-6,11.21-1.69,1.16-3.24,1.63-4.04,1.85-5.16,1.45-9.12-.17-10.58-.52-1.13-.27-1.89-.62-2.88-1.2-4.73-2.77-5.9-8.01-6-8.47-.25-1.19-.99-5.65,1.73-9.52Z"/><path class="cls-6" d="M45.08,90.9c.25,.77,.8,2.22,.44,2.44-.28,.17-.97-.51-1.13-.66-2.36-2.29-2.24-8.7-.07-14.17,.7-1.75,1.53-3.22,1.7-3.15,.27,.1-1.55,3.45-1.64,8.24-.05,2.99-.09,4.92,.69,7.3Z"/><path class="cls-4" d="M59.59,89.86c2.12,2.3,5.42,2.68,5.3,3.82-.02,.22-.17,.42-.33,.53-1.35,.85-6.9-3.01-8.37-8.33-.76-2.74-.73-6.95,1.59-8.51,.61-.41,1.62-.8,2.01-.43,.87,.81-2.66,4.07-2.2,8.38,.06,.6,.37,2.79,2,4.55Z"/><path class="cls-5" d="M83.79,84.93c-.06,.16-.64,1.62-1.43,1.61-1.4-.02-.9-4.65-3.88-7.8-3.12-3.3-7.83-2.64-8.01-4.63-.08-.88,.77-1.72,1.49-2.07,2.88-1.41,7.41,3.31,8.07,4,.89,.93,5.13,5.35,3.76,8.9Z"/><path class="cls-5" d="M81.89,88.93c-.39-.13-.68-.69-.51-1.03,.15-.3,.61-.31,.81-.32,.32-.01,.9,.07,.98,.35,.11,.38-.68,1.2-1.28,.99Z"/><path class="cls-3" d="M94.95,84.51c-.11,.54-.68,3.48-2.49,3.81-1.12,.2-2.59-.6-2.94-1.73-.56-1.81,2.28-2.75,2.94-5.65,.96-4.24-3.63-8.93-4.93-10.26-3.08-3.15-4.57-4.11-4.57-4.11-1.44-.93-3-1.66-2.89-2.51,.06-.44,.54-.78,.94-.9,.76-.23,1.53,.26,1.99,.59,4.86,3.44,9.11,10.16,9.11,10.16,.79,1.25,1.55,2.53,2.14,4.31,.6,1.8,.74,3.25,.78,4.01,.05,.86,.08,1.48-.08,2.29Z"/><path class="cls-3" d="M93.99,93.01c-.9,.23-2.11-.36-2.34-1.26-.3-1.47,1.93-2.98,2.74-2.64,.89,.26,.76,3.27-.4,3.9Z"/></g></svg>