<?xml version="1.0" encoding="UTF-8"?><svg id="Layer_1" xmlns="http://www.w3.org/2000/svg" xmlns:xlink="http://www.w3.org/1999/xlink" viewBox="0 0 1576.09 88.46"><defs><style>.cls-1{fill:url(#linear-gradient);}.cls-2{fill:#ee4c2c;}</style><linearGradient id="linear-gradient" x1="-2948.37" y1="151.95" x2="-2948.2" y2="151.95" gradientTransform="translate(-635802.94 -464736.57) rotate(-146.78) scale(266.79 -266.79)" gradientUnits="userSpaceOnUse"><stop offset="0" stop-color="#ed1480"/><stop offset=".82" stop-color="#f6851f"/><stop offset="1" stop-color="#f8a330"/></linearGradient></defs><g><g><path d="M62.42,26.54l-6.29,6.29c10.33,10.33,10.33,26.94,0,37.11-10.33,10.33-26.94,10.33-37.11,0-10.33-10.33-10.33-26.94,0-37.11h0l16.38-16.38,2.33-2.33h0V1.78L13.04,26.46C-.7,40.21-.7,62.41,13.04,76.15c13.74,13.74,35.95,13.74,49.46,0,13.66-13.74,13.66-35.79-.08-49.61Z"/><circle cx="50.07" cy="20.49" r="4.58" transform="translate(28.66 70.17) rotate(-88.94)"/></g><path id="shrimp" class="cls-1" d="M28.41,40.56H7.12c-.33,.78-1.1,1.33-2,1.33-1.2,0-2.16-.97-2.16-2.16s.97-2.17,2.16-2.17c.9,0,1.68,.55,2,1.34H27.68s.01,.08,.02,.12c.13,.57,.38,1.08,.71,1.55Zm-.61-4.68H15.99c-.33,.78-1.1,1.33-2,1.33-1.2,0-2.16-.97-2.16-2.17s.97-2.16,2.16-2.16c.9,0,1.68,.55,2,1.34h12.42c-.27,.55-.48,1.11-.62,1.67Zm32.89,9.31c1.11,1.65,.81,5.15-1.95,6.59-2.48,1.3-5.36,.73-6.47-.92-1.11-1.65,1.27-1.82,3.59-3.38,2.32-1.57,3.71-3.94,4.82-2.29h0Zm-4.36-9.17c2.28,2.45,1.83,6.57-1.01,9.2-2.83,2.63-6.98,2.78-9.25,.33-2.28-2.45,1.52-2.97,4.36-5.6,2.83-2.63,3.63-6.38,5.9-3.93Zm-20.05-2.13c1.02-.16,1.97,.53,2.14,1.55,.16,1.02-.53,1.97-1.55,2.14-1.02,.16-1.97-.53-2.14-1.55-.16-1.02,.53-1.97,1.55-2.13Zm-6.13,4.57c.45,2.02,5.51,3.95,11.38,3.02,5.88-.93,10.2-4.44,9.67-7.85-.54-3.41-5.74-5.42-11.61-4.49-5.88,.93-10.18,5.95-9.43,9.32Zm28.59,15.99c-1.96-.8-4.34,2.61-5.12,4.51-.77,1.89-1.62,3.57,.34,4.37,1.96,.8,3.74-.33,4.95-1.98,1.45-1.99,1.79-6.1-.17-6.9"/></g><g><path class="cls-2" d="M100.53,57.64v-19.32h-11.59v-5.21l11.84-.42,.92-13.1h5.8v13.1h19.99v5.63h-19.99v19.4c0,7.31,2.44,11.09,10.33,11.09,3.78,0,6.8-.76,9.74-1.85l1.51,5.12c-3.7,1.34-7.64,2.44-12.77,2.44-11.93,0-15.79-6.8-15.79-16.88Z"/><path class="cls-2" d="M138.67,53.19c0-13.69,9.41-21.5,20.16-21.5s20.16,7.81,20.16,21.5-9.41,21.34-20.16,21.34-20.16-7.81-20.16-21.34Zm33.18,0c0-9.41-5.21-15.71-13.02-15.71s-13.02,6.3-13.02,15.71,5.21,15.54,13.02,15.54,13.02-6.22,13.02-15.54Z"/><path class="cls-2" d="M196.21,32.69h5.79l.67,9.66h.17c4.28-6.64,10.67-10.67,18.23-10.67,3.02,0,5.54,.42,8.06,1.68l-1.6,5.96c-2.86-.92-4.37-1.34-7.56-1.34-6.13,0-11.93,3.11-16.8,11.68v23.86h-6.97V32.69Z"/><path class="cls-2" d="M241.14,53.19c0-13.69,10.42-21.5,22.76-21.5,6.64,0,11.51,2.69,14.87,5.96l-3.44,4.45c-3.36-2.86-6.89-4.62-11.17-4.62-9.41,0-15.88,6.3-15.88,15.71s6.38,15.54,15.71,15.54c5.04,0,9.24-2.27,12.6-5.12l3.11,4.54c-4.54,4.03-10.16,6.38-16.21,6.38-12.77,0-22.34-7.81-22.34-21.34Z"/><path class="cls-2" d="M292.64,13.71h6.97V30.01l-.42,9.66h.25c4.12-4.54,8.9-7.98,15.2-7.98,9.66,0,14.11,5.71,14.11,16.46v25.37h-6.97v-24.44c0-7.73-2.69-11.34-9.32-11.34-4.87,0-8.15,2.44-12.85,7.31v28.48h-6.97V13.71Z"/><path class="cls-2" d="M342.36,43.19h36.12v5.21h-36.12v-5.21Z"/><path class="cls-2" d="M392.34,62.93c0-9.16,8.57-13.61,29.65-15.29-.25-5.54-2.94-10.25-10.84-10.25-5.29,0-10.5,2.52-14.28,4.87l-2.77-4.7c4.2-2.69,11.09-5.88,18.23-5.88,11.17,0,16.63,6.64,16.63,16.8v25.03h-5.79l-.59-5.54h-.25c-4.45,3.53-10.33,6.55-16.04,6.55-7.64,0-13.94-4.28-13.94-11.59Zm29.65-.08v-10.58c-17.47,1.34-22.76,4.79-22.76,10.16,0,4.62,4.2,6.47,8.9,6.47s9.16-2.18,13.86-6.05Z"/><path class="cls-2" d="M441.06,53.19c0-13.27,8.82-21.5,18.48-21.5,4.87,0,8.65,1.93,12.26,5.21h.17l-.34-7.48V13.71h6.97v59.81h-5.71l-.59-5.38h-.25c-3.36,3.44-8.23,6.38-13.36,6.38-10.58,0-17.64-7.73-17.64-21.34Zm30.58,9.41v-20.33c-3.7-3.44-7.14-4.7-10.67-4.7-7.06,0-12.77,6.22-12.77,15.54s4.54,15.54,12.01,15.54c4.03,0,7.81-2.02,11.42-6.05Z"/><path class="cls-2" d="M493.14,62.93c0-9.16,8.57-13.61,29.65-15.29-.25-5.54-2.94-10.25-10.84-10.25-5.29,0-10.5,2.52-14.28,4.87l-2.77-4.7c4.2-2.69,11.09-5.88,18.23-5.88,11.17,0,16.63,6.64,16.63,16.8v25.03h-5.8l-.59-5.54h-.25c-4.45,3.53-10.33,6.55-16.04,6.55-7.64,0-13.95-4.28-13.95-11.59Zm29.65-.08v-10.58c-17.47,1.34-22.76,4.79-22.76,10.16,0,4.62,4.2,6.47,8.9,6.47s9.16-2.18,13.86-6.05Z"/><path class="cls-2" d="M554.12,57.64v-19.32h-11.59v-5.21l11.84-.42,.92-13.1h5.8v13.1h19.99v5.63h-19.99v19.4c0,7.31,2.44,11.09,10.33,11.09,3.78,0,6.8-.76,9.74-1.85l1.51,5.12c-3.7,1.34-7.64,2.44-12.77,2.44-11.93,0-15.79-6.8-15.79-16.88Z"/><path class="cls-2" d="M593.94,62.93c0-9.16,8.57-13.61,29.65-15.29-.25-5.54-2.94-10.25-10.84-10.25-5.29,0-10.5,2.52-14.28,4.87l-2.77-4.7c4.2-2.69,11.09-5.88,18.23-5.88,11.17,0,16.63,6.64,16.63,16.8v25.03h-5.8l-.59-5.54h-.25c-4.45,3.53-10.33,6.55-16.04,6.55-7.64,0-13.95-4.28-13.95-11.59Zm29.65-.08v-10.58c-17.47,1.34-22.76,4.79-22.76,10.16,0,4.62,4.2,6.47,8.9,6.47s9.16-2.18,13.86-6.05Z"/></g></svg>